<svg width="24" height="24" viewBox="0 0 24 24" fill="none" xmlns="http://www.w3.org/2000/svg">
<path d="M16 22.027V19.157C16.0375 18.6802 15.9731 18.2008 15.811 17.7508C15.6489 17.3008 15.3929 16.8904 15.06 16.547C18.2 16.197 21.5 15.007 21.5 9.547C21.4997 8.15083 20.9627 6.8082 20 5.797C20.4559 4.57551 20.4236 3.22535 19.91 2.027C19.91 2.027 18.73 1.677 16 3.507C13.708 2.88582 11.292 2.88582 9 3.507C6.27 1.677 5.09 2.027 5.09 2.027C4.57638 3.22535 4.54414 4.57551 5 5.797C4.03013 6.8157 3.49252 8.17046 3.5 9.577C3.5 14.997 6.8 16.187 9.94 16.577C9.611 16.917 9.35726 17.3224 9.19531 17.7669C9.03335 18.2114 8.96681 18.6851 9 19.157V22.027" stroke="#2A2941" stroke-width="1.5" stroke-linecap="round" stroke-linejoin="round"/>
<path d="M9 20.027C6 21 3.5 20.027 2 17.027" stroke="#2A2941" stroke-width="1.5" stroke-linecap="round" stroke-linejoin="round"/>
</svg>
