<svg width="22" height="22" viewBox="0 0 22 22" fill="none" xmlns="http://www.w3.org/2000/svg">
<path d="M11 0.5C8.21523 0.5 5.54451 1.60625 3.57538 3.57538C1.60625 5.54451 0.5 8.21523 0.5 11C0.5 13.7848 1.60625 16.4555 3.57538 18.4246C5.54451 20.3938 8.21523 21.5 11 21.5C13.7848 21.5 16.4555 20.3938 18.4246 18.4246C20.3938 16.4555 21.5 13.7848 21.5 11C21.5 8.21523 20.3938 5.54451 18.4246 3.57538C16.4555 1.60625 13.7848 0.5 11 0.5ZM9.1175 2.2025C9.2375 2.435 9.3575 2.6525 9.485 2.8775C10.055 3.8975 10.5575 4.775 10.235 5.9525C10.1075 6.4625 9.485 6.7025 8.63 7.0025C8.01667 7.14736 7.4589 7.46795 7.025 7.925C6.73131 8.36112 6.54844 8.86229 6.49225 9.38506C6.43605 9.90784 6.50822 10.4364 6.7025 10.925C6.845 11.48 6.9275 11.825 6.7775 12.05C6.6275 12.275 6.665 12.185 6.2675 12.2375C5.82034 12.2655 5.38542 12.3949 4.99561 12.6158C4.60581 12.8367 4.27134 13.1433 4.0175 13.5125C3.58473 14.1405 3.34253 14.8801 3.32 15.6425C2.46018 14.2464 2.00333 12.6396 2 11C2.00078 8.94059 2.70782 6.94374 4.00313 5.3427C5.29843 3.74165 7.10365 2.63326 9.1175 2.2025ZM4.9325 17.63C4.8125 16.7825 4.625 15.2525 5.225 14.45C5.36189 14.2366 5.55064 14.0614 5.77361 13.9407C5.99657 13.8201 6.24649 13.7579 6.5 13.76C6.79796 13.7419 7.08789 13.6562 7.34779 13.5093C7.60769 13.3625 7.83073 13.1584 8 12.9125C8.19129 12.5568 8.30128 12.1631 8.32203 11.7597C8.34278 11.3564 8.27378 10.9535 8.12 10.58C7.925 9.83 7.82 9.3275 8.195 8.825C8.48069 8.64672 8.79171 8.5127 9.1175 8.4275C10.07 8.105 11.3675 7.6775 11.6975 6.2975C12.1175 4.55 11.3975 3.2975 10.76 2.135L10.7225 2H11C12.6973 2 14.36 2.4845 15.7925 3.395C15.0038 4.61577 14.0554 5.7256 12.9725 6.695C11.9375 7.6325 12.695 8.7125 13.1975 9.425C13.4716 9.71886 13.6839 10.0648 13.8218 10.4423C13.9596 10.8198 14.0202 11.2211 14 11.6225C13.9459 11.8316 13.9464 12.0511 14.0016 12.2599C14.0568 12.4688 14.1647 12.6599 14.315 12.815C14.5422 12.9683 14.8051 13.0606 15.0783 13.0829C15.3515 13.1052 15.6259 13.0569 15.875 12.9425C16.055 12.8915 16.2372 12.854 16.4225 12.83C16.505 13.115 16.3475 13.3475 15.6725 13.97C14.9975 14.5925 14.105 15.4325 14.375 16.775C14.4707 17.1611 14.6472 17.5225 14.8928 17.8354C15.1384 18.1482 15.4476 18.4054 15.8 18.59C14.1366 19.6519 12.1686 20.1335 10.2028 19.9599C8.23706 19.7862 6.38398 18.967 4.9325 17.63ZM17.0825 17.63L16.79 17.4425C16.265 17.1275 15.9425 16.9025 15.86 16.49C15.7775 16.0775 16.0475 15.7025 16.715 15.08C17.3825 14.4575 18.3125 13.58 17.8175 12.2525C17.36 11.045 16.1 11.3525 15.53 11.5025C15.5123 10.4293 15.1226 9.39543 14.4275 8.5775C14.2397 8.35221 14.0879 8.09922 13.9775 7.8275C15.1278 6.7976 16.1365 5.61985 16.9775 4.325C17.9152 5.15905 18.6673 6.18074 19.1851 7.32392C19.7029 8.4671 19.9749 9.70628 19.9834 10.9612C19.9919 12.2162 19.7367 13.4589 19.2344 14.609C18.7321 15.7591 17.9939 16.7908 17.0675 17.6375L17.0825 17.63Z" fill="#2A2941"/>
</svg>
